<svg width="48" height="48" viewBox="0 0 48 48" fill="none" xmlns="http://www.w3.org/2000/svg">
<path fill-rule="evenodd" clip-rule="evenodd" d="M3.36628 15.2997H4.97222C5.99869 15.2997 6.8385 16.1396 6.8385 17.166V17.9291C6.8385 18.9555 5.99869 19.7953 4.97222 19.7953H3.36628C2.33981 19.7953 1.5 18.9555 1.5 17.9291V17.166C1.5 16.1396 2.33981 15.2997 3.36628 15.2997ZM44.6337 15.2997H43.0278C42.0013 15.2997 41.1615 16.1396 41.1615 17.166V17.9291C41.1615 18.9555 42.0013 19.7953 43.0278 19.7953H44.6337C45.6602 19.7953 46.5 18.9555 46.5 17.9291V17.166C46.5 16.1396 45.6602 15.2997 44.6337 15.2997Z" fill="#408AEC"/>
<path fill-rule="evenodd" clip-rule="evenodd" d="M33.6765 4.3472L14.3237 4.34729C13.0711 4.34729 12.0052 5.10076 11.5874 6.28154L7.55819 17.6669C7.23381 18.5836 7.363 19.5167 7.92428 20.3107C8.48556 21.1047 9.322 21.5378 10.2944 21.5378H37.7056C38.678 21.5378 39.5145 21.1047 40.0757 20.3107C40.637 19.5167 40.7662 18.5836 40.4418 17.6669L36.4127 6.28145C35.9949 5.10067 34.9291 4.3472 33.6765 4.3472Z" fill="#408AEC"/>
<path fill-rule="evenodd" clip-rule="evenodd" d="M33.6765 6.9722C33.8164 6.9722 33.8914 7.02526 33.9381 7.15717L37.9672 18.5426C38.0068 18.6544 38.0007 18.6987 37.9322 18.7955C37.8638 18.8923 37.8241 18.9129 37.7055 18.9129H10.2945C10.1759 18.9129 10.1363 18.8923 10.0679 18.7955C9.99943 18.6986 9.99324 18.6544 10.0328 18.5426L14.0619 7.15726C14.1086 7.02535 14.1837 6.97229 14.3236 6.97229L33.6765 6.9722Z" fill="#A4D4FF"/>
<path fill-rule="evenodd" clip-rule="evenodd" d="M11.3931 26.5269H7.59571C6.82058 26.5269 6.18843 27.159 6.18843 27.9341V42.2456C6.18843 43.0206 6.82058 43.6528 7.59571 43.6528H11.3931C12.1682 43.6528 12.8003 43.0207 12.8003 42.2456V27.9341C12.8002 27.159 12.1681 26.5269 11.3931 26.5269ZM40.4044 26.4536H36.607C35.8319 26.4536 35.1997 27.0857 35.1997 27.8608V42.1721C35.1997 42.9473 35.832 43.5794 36.607 43.5794H40.4044C41.1795 43.5794 41.8116 42.9473 41.8116 42.1721V27.8608C41.8116 27.0857 41.1795 26.4536 40.4044 26.4536Z" fill="#314762"/>
<path fill-rule="evenodd" clip-rule="evenodd" d="M41.4955 18.6243H6.50454C4.53082 18.6243 2.91598 20.2391 2.91598 22.2129V33.3738H45.084V22.2129C45.084 20.2391 43.4692 18.6243 41.4955 18.6243Z" fill="#408AEC"/>
<path fill-rule="evenodd" clip-rule="evenodd" d="M15.9533 33.6294H32.0466V27.4679C32.0466 26.187 30.9986 25.139 29.7177 25.139H18.2822C17.0013 25.139 15.9532 26.1871 15.9532 27.4679V33.6294H15.9533Z" fill="#314762"/>
<path fill-rule="evenodd" clip-rule="evenodd" d="M9.49432 21.2632C7.58172 21.2632 6.03119 22.8136 6.03119 24.7263C6.03119 26.6389 7.58172 28.1894 9.49432 28.1894C11.4069 28.1894 12.9574 26.639 12.9574 24.7263C12.9574 22.8136 11.4069 21.2632 9.49432 21.2632ZM38.5056 21.2632C36.5929 21.2632 35.0425 22.8136 35.0425 24.7263C35.0425 26.6389 36.5929 28.1894 38.5056 28.1894C40.4182 28.1894 41.9688 26.639 41.9688 24.7263C41.9688 22.8136 40.4183 21.2632 38.5056 21.2632Z" fill="#FDCD56"/>
<path fill-rule="evenodd" clip-rule="evenodd" d="M45.0927 32.692H2.90738C2.13225 32.692 1.5001 33.3241 1.5001 34.0992V35.0698C1.5001 35.845 2.13225 36.4771 2.90738 36.4771H45.0927C45.8678 36.4771 46.5 35.845 46.5 35.0698V34.0992C46.5 33.3241 45.8678 32.692 45.0927 32.692Z" fill="#408AEC"/>
</svg>
