<svg width="13" height="24" viewBox="0 0 13 24" fill="none" xmlns="http://www.w3.org/2000/svg">
<path d="M12.0118 1.55463H0.888364C0.396929 1.55463 0 1.95155 0 2.44299V23.1116C0 23.6031 0.396929 24 0.888364 24H12.0118C12.5032 24 12.9002 23.6031 12.9002 23.1116V2.44772C12.9002 1.95628 12.5032 1.55463 12.0118 1.55463Z" fill="#FBD984"/>
<path d="M12.0118 1.55463H0.888364C0.396929 1.55463 0 1.95156 0 2.44299V6.417H12.9049V2.44772C12.9002 1.95628 12.5033 1.55463 12.0118 1.55463Z" fill="#F1786B"/>
<path d="M12.0118 1.55463H0.888364C0.396929 1.55463 0 1.95156 0 2.44299V3.07146C0 2.58003 0.396929 2.1831 0.888364 2.1831H12.0118C12.5032 2.1831 12.9002 2.58003 12.9002 3.07146V2.44772C12.9002 1.95628 12.5032 1.55463 12.0118 1.55463Z" fill="#F98B85"/>
<path d="M8.22679 0H4.67806C4.29531 0 3.98816 0.311872 3.98816 0.6899V1.55464H8.92141V0.6899C8.91669 0.311872 8.60482 0 8.22679 0Z" fill="#445C6C"/>
<path d="M10.6604 8.98761L2.23981 15.8488H6.56822L2.23981 20.5978L10.6604 14.0106H6.09096L10.6604 8.98761Z" fill="white"/>
</svg>
