<svg width="24" height="24" viewBox="0 0 24 24" fill="none" xmlns="http://www.w3.org/2000/svg">
<path d="M10.5866 5.22824L9.53159 7.08099C9.47386 7.17903 9.38002 7.25054 9.27018 7.2802C9.16034 7.30986 9.04326 7.2953 8.94403 7.23965L5.84754 5.46847C5.79864 5.44078 5.75571 5.40367 5.72123 5.35929C5.68675 5.31491 5.6614 5.26414 5.64664 5.20992C5.63189 5.15569 5.62803 5.09908 5.63527 5.04335C5.64252 4.98762 5.66073 4.93388 5.68886 4.88522L6.74388 3.03681C8.97083 -1.01221 15.0384 -1.01236 17.2685 3.03689L19.2842 6.3648L20.2964 5.85015C20.3759 5.81202 20.4651 5.79909 20.5521 5.81309C20.6391 5.82709 20.7197 5.86736 20.7832 5.92849C20.8466 5.98963 20.8899 6.0687 20.9071 6.15512C20.9244 6.24153 20.9148 6.33115 20.8797 6.41196L19.1728 10.1903C19.139 10.2656 19.0842 10.3295 19.015 10.3744C18.9457 10.4193 18.865 10.4432 18.7825 10.4433C18.6866 10.4573 14.4154 9.77734 14.3264 9.77857C14.2371 9.76324 14.155 9.72035 14.0913 9.65592C14.0277 9.59149 13.9859 9.50876 13.9717 9.41935C13.9575 9.32993 13.9717 9.23832 14.0123 9.15737C14.0528 9.07642 14.1177 9.0102 14.1978 8.96801L15.3386 8.38473L13.4301 5.24117C13.2901 4.98728 13.0849 4.77538 12.8356 4.62738C12.5864 4.47938 12.3021 4.40065 12.0122 4.39933C11.7223 4.39801 11.4373 4.47415 11.1866 4.61988C10.936 4.76561 10.7289 4.97563 10.5866 5.22824ZM8.21066 17.9442L6.0791 17.9571C5.78872 17.9609 5.50262 17.8869 5.25042 17.743C4.99823 17.599 4.78912 17.3902 4.64477 17.1382C4.50041 16.8863 4.42606 16.6003 4.42941 16.3099C4.43276 16.0195 4.5137 15.7354 4.66383 15.4868L6.4308 12.2617L7.51158 12.9608C7.57921 13.0044 7.65781 13.0279 7.73827 13.0286C7.81873 13.0294 7.89776 13.0073 7.96619 12.965C8.05446 12.9144 8.12136 12.8335 8.15448 12.7372C8.1876 12.641 8.1847 12.5361 8.14631 12.4418L6.52088 8.30756C6.48704 8.22123 6.4261 8.14822 6.34721 8.0995C6.26833 8.05078 6.17576 8.02897 6.08342 8.03737L1.95335 8.44909C1.86576 8.45988 1.78355 8.49718 1.71775 8.55599C1.65194 8.6148 1.60567 8.69231 1.58514 8.77815C1.56462 8.86398 1.5708 8.95404 1.60288 9.03626C1.63496 9.11848 1.69139 9.18893 1.76462 9.23819L2.70386 9.8472L1.88041 11.2496C1.86858 11.2731 1.85855 11.2975 1.8504 11.3225L0.838335 13.2652C-1.54926 17.2113 1.46458 22.4545 6.07485 22.3786H6.10057L8.22781 22.3701C8.34149 22.3699 8.45045 22.3246 8.53083 22.2442C8.61122 22.1639 8.65647 22.0549 8.65669 21.9412L8.63954 18.3731C8.6392 18.2594 8.59391 18.1505 8.51355 18.0702C8.43319 17.9898 8.3243 17.9445 8.21066 17.9442ZM23.1742 13.2652L22.102 11.4254C22.0435 11.3282 21.9493 11.2576 21.8396 11.2288C21.7298 11.2 21.6131 11.2151 21.5144 11.271L18.4351 13.0722C18.3862 13.1 18.3433 13.1372 18.309 13.1817C18.2747 13.2262 18.2496 13.2771 18.2353 13.3314C18.2209 13.3857 18.2175 13.4424 18.2253 13.498C18.2331 13.5537 18.2519 13.6072 18.2807 13.6555L19.3529 15.4954C19.5014 15.7444 19.5807 16.0285 19.5827 16.3184C19.5846 16.6083 19.5091 16.8934 19.3639 17.1444C19.2187 17.3953 19.0092 17.6029 18.7569 17.7458C18.5047 17.8887 18.2189 17.9616 17.929 17.957C17.9211 17.9566 14.2536 18.0385 14.2449 18.0385L14.3093 16.7519C14.3118 16.6617 14.2862 16.5729 14.2359 16.4979C14.1857 16.423 14.1134 16.3654 14.0291 16.3334C13.9447 16.3013 13.8524 16.2963 13.7651 16.3191C13.6777 16.3418 13.5996 16.3912 13.5416 16.4603L10.7753 19.9341C10.7171 20.0075 10.6844 20.0978 10.682 20.1914C10.6797 20.285 10.7079 20.3769 10.7625 20.453L13.1857 23.8196C13.2367 23.8923 13.3093 23.9471 13.3932 23.9763C13.477 24.0056 13.568 24.0078 13.6531 23.9826C13.7386 23.9573 13.8141 23.9063 13.8694 23.8364C13.9247 23.7665 13.957 23.6813 13.9619 23.5923L14.0177 22.473L15.6474 22.4816C15.6718 22.4843 15.6964 22.4829 15.7203 22.4773L17.9119 22.3786C18.9803 22.3836 20.0311 22.106 20.9577 21.574C21.8843 21.042 22.6537 20.2744 23.188 19.3491C23.7223 18.4239 24.0024 17.3738 24 16.3053C23.9976 15.2369 23.7126 14.1881 23.1742 13.2652Z" fill="url(#paint0_linear_0_3781)"/>
<defs>
<linearGradient id="paint0_linear_0_3781" x1="5.45442e-07" y1="12" x2="24.0089" y2="12" gradientUnits="userSpaceOnUse">
<stop stop-color="#9CFFAC"/>
<stop offset="1" stop-color="#00B59C"/>
</linearGradient>
</defs>
</svg>
