<svg width="24" height="24" viewBox="0 0 24 24" fill="none" xmlns="http://www.w3.org/2000/svg">
<path d="M24 7.13591C24 4.32449 21.7127 2.03718 18.9013 2.03718H15.3734C14.491 1.01315 13.3081 0.338055 12 0.0979614L11.5312 8.52248L12 17.045H17.5824C20.219 17.045 22.364 14.8999 22.364 12.2633C22.364 11.8406 22.3095 11.4252 22.2015 11.0226C23.3363 10.0586 24 8.64154 24 7.13591Z" fill="#8F9FBF"/>
<path d="M10.9222 0C9.20784 0 7.56811 0.761109 6.45656 2.05467C6.3202 2.04305 6.18323 2.03719 6.0465 2.03719C3.40992 2.03719 1.26487 4.18223 1.26487 6.81881C1.26487 7.00641 1.27589 7.19428 1.29773 7.38042C0.468891 8.28487 0 9.47883 0 10.7119C0 13.4286 2.21011 15.6387 4.92675 15.6387C5.33733 15.6387 5.74205 15.5885 6.13528 15.4892C7.06453 16.4835 8.34891 17.0449 9.72863 17.0449H12V0.0979687C11.6486 0.0334687 11.2883 0 10.9222 0Z" fill="#B9C9D9"/>
<path d="M19.413 13.5087L15.2595 13.498V11.9617L17.3846 10.475C17.7054 10.2505 17.8969 9.88279 17.8969 9.49129C17.8969 9.0749 17.5712 8.73229 17.1708 8.72746C17.1678 8.72742 17.1648 8.72742 17.1618 8.72742C16.8104 8.72742 16.5077 8.97506 16.4401 9.31945L15.0602 9.04846C15.2574 8.04379 16.1389 7.32117 17.1616 7.32117C17.1703 7.32117 17.1789 7.32121 17.1878 7.32131C18.3542 7.33532 19.3032 8.30878 19.3032 9.49129C19.3032 10.3415 18.8874 11.1399 18.1908 11.6272L17.5186 12.0975L19.4167 12.1024L19.413 13.5087Z" fill="#E6ECF2"/>
<path d="M6.375 12.1024C5.21189 12.1024 4.26562 11.1562 4.26562 9.99304V7.08679C4.26562 5.92368 5.21189 4.97742 6.375 4.97742C7.53811 4.97742 8.48438 5.92368 8.48438 7.08679H7.07812C7.07812 6.69909 6.7627 6.38367 6.375 6.38367C5.9873 6.38367 5.67188 6.69909 5.67188 7.08679V9.99304C5.67188 10.3807 5.9873 10.6962 6.375 10.6962C6.7627 10.6962 7.07812 10.3807 7.07812 9.99304H8.48438C8.48438 11.1562 7.53811 12.1024 6.375 12.1024Z" fill="#FFF5F5"/>
<path d="M16.5234 19.0781H13.7109L13.2422 21.5391L13.7109 24H16.5234C17.8804 24 18.9844 22.896 18.9844 21.5391C18.9844 20.1821 17.8804 19.0781 16.5234 19.0781Z" fill="#8F9FBF"/>
<path d="M4.57031 17.0449H3.51562L3.04688 19.5059L3.51562 21.9668H4.57031C5.92725 21.9668 7.03125 20.8628 7.03125 19.5059C7.03125 18.1489 5.92725 17.0449 4.57031 17.0449Z" fill="#8F9FBF"/>
<path d="M2.46094 17.0449C1.104 17.0449 0 18.1489 0 19.5059C0 20.8628 1.104 21.9668 2.46094 21.9668H3.51562V17.0449H2.46094Z" fill="#B9C9D9"/>
<path d="M10.8984 19.0781C9.5415 19.0781 8.4375 20.1821 8.4375 21.5391C8.4375 22.896 9.5415 24 10.8984 24H13.7109V19.0781H10.8984Z" fill="#B9C9D9"/>
<path d="M12 4.97742L11.5312 5.68054L12 6.38367C12.3877 6.38367 12.7031 6.69909 12.7031 7.08679V9.99304C12.7031 10.3807 12.3877 10.6962 12 10.6962L11.5312 11.3993L12 12.1024C13.1631 12.1024 14.1094 11.1562 14.1094 9.99304V7.08679C14.1094 5.92364 13.1631 4.97742 12 4.97742Z" fill="#E6ECF2"/>
<path d="M11.2969 9.99304V7.08679C11.2969 6.69909 11.6123 6.38367 12 6.38367V4.97742C10.8369 4.97742 9.89062 5.92368 9.89062 7.08679V9.99304C9.89062 11.1562 10.8369 12.1024 12 12.1024V10.6962C11.6123 10.6962 11.2969 10.3807 11.2969 9.99304Z" fill="#FFF5F5"/>
</svg>
