<svg width="48" height="48" viewBox="0 0 48 48" fill="none" xmlns="http://www.w3.org/2000/svg">
<path d="M18 46.5C17.1716 46.5 16.5 45.8284 16.5 45V39C16.5 38.1716 17.1716 37.5 18 37.5C18.8284 37.5 19.5 38.1716 19.5 39V45C19.5 45.8284 18.8284 46.5 18 46.5Z" fill="#8D6E63"/>
<path d="M30 46.5C29.1716 46.5 28.5 45.8284 28.5 45V39C28.5 38.1716 29.1716 37.5 30 37.5C30.8284 37.5 31.5 38.1716 31.5 39V45C31.5 45.8284 30.8284 46.5 30 46.5Z" fill="#6D4C41"/>
<path d="M44.8191 38.2859L39.5185 28.5H40.5H40.5146C41.354 28.5366 42.03 27.8335 42.03 27C42.03 26.6477 41.9084 26.3232 41.7048 26.0669L37.4795 18H37.5H37.5146C38.3774 17.9392 39.03 17.3335 39.03 16.5C39.03 16.1345 38.8996 15.7998 38.6828 15.5398L31.311 2.27124C30.7822 1.31909 29.2178 1.31909 28.6889 2.27124L21.1889 15.7712C20.9304 16.2363 20.9377 16.8025 21.2073 17.261C21.4768 17.7188 21.9682 18 22.5 18H22.5205L18.1714 26.3042C17.9275 26.7693 17.945 27.3274 18.2168 27.7764C18.4885 28.2253 18.9748 28.5 19.5 28.5H20.4814L15.1809 38.2859C14.9289 38.7502 14.9407 39.3135 15.2109 39.7676C15.4819 40.2217 15.9712 40.5 16.5 40.5H43.5C44.0288 40.5 44.518 40.2217 44.789 39.7676C45.0593 39.3135 45.071 38.7502 44.8191 38.2859Z" fill="#43A047"/>
<path opacity="0.1" d="M44.7876 39.7646C44.5181 40.2151 44.0229 40.5 43.4978 40.5H31.4978V45C31.4978 45.8247 30.8225 46.5 29.9978 46.5V1.56006C30.5229 1.56006 31.0481 1.80029 31.303 2.26465L38.6829 15.5398C38.8931 15.7947 39.0278 16.1396 39.0278 16.5C39.0278 17.3401 38.3525 17.9399 37.5125 18H37.4832L41.6975 26.0698C41.9077 26.3247 42.0278 26.655 42.0278 27C42.0278 27.8401 41.3225 28.53 40.5125 28.5H39.5229L44.8176 38.28C45.0725 38.7451 45.0579 39.3149 44.7876 39.7646Z" fill="black"/>
<path d="M32.8191 38.2859L27.5186 28.5H28.5H28.5147C29.3276 28.5366 30.03 27.8335 30.03 27C30.03 26.6477 29.9085 26.3232 29.7048 26.0669L25.4795 18H25.5H25.5147C26.3511 17.9392 27.03 17.3335 27.03 16.5C27.03 16.1345 26.8997 15.7998 26.6829 15.5398L19.311 2.27124C18.7822 1.31909 17.2178 1.31909 16.689 2.27124L9.18897 15.7712C8.93043 16.2363 8.93775 16.8025 9.20728 17.261C9.47681 17.7188 9.96827 18 10.5 18H10.5205L6.17139 26.3042C5.9275 26.7693 5.94508 27.3274 6.2168 27.7764C6.48853 28.2253 6.97486 28.5 7.50001 28.5H8.48145L3.18092 38.2859C2.92896 38.7502 2.94068 39.3135 3.21095 39.7676C3.48194 40.2217 3.9712 40.5 4.50001 40.5H31.5C32.0288 40.5 32.5181 40.2217 32.7891 39.7676C33.0593 39.3135 33.0711 38.7502 32.8191 38.2859Z" fill="#66BB6A"/>
<path opacity="0.1" d="M32.7898 39.7646C32.5203 40.2151 32.0251 40.5 31.5 40.5H19.5V45C19.5 45.8247 18.8247 46.5 18 46.5V1.56006C18.5251 1.56006 19.0503 1.80029 19.3052 2.26465L26.6851 15.5398C26.8953 15.7947 27.03 16.1396 27.03 16.5C27.03 17.3401 26.3547 17.9399 25.5146 18H25.4854L29.6997 26.0698C29.9099 26.3247 30.03 26.655 30.03 27C30.03 27.8401 29.3247 28.53 28.5146 28.5H27.5251L32.8198 38.28C33.0747 38.7451 33.0601 39.3149 32.7898 39.7646Z" fill="black"/>
</svg>
