<svg width="17" height="24" viewBox="0 0 17 24" fill="none" xmlns="http://www.w3.org/2000/svg">
<path d="M7.41688 0.513225C6.64879 1.61735 0 11.3745 0 15.599C3.3201e-08 17.8271 0.885102 19.9639 2.46059 21.5394C4.03609 23.1149 6.17291 24 8.40099 24C10.6291 24 12.7659 23.1149 14.3414 21.5394C15.9169 19.9639 16.802 17.8271 16.802 15.599C16.802 11.3745 10.1532 1.61735 9.38511 0.513225C9.27451 0.354771 9.12728 0.225367 8.95594 0.136013C8.78461 0.0466601 8.59423 0 8.40099 0C8.20776 0 8.01738 0.0466601 7.84604 0.136013C7.6747 0.225367 7.52748 0.354771 7.41688 0.513225Z" fill="#63C4F1"/>
<path d="M7.8009 20.3996C6.68686 20.3996 5.61845 19.957 4.8307 19.1693C4.04295 18.3815 3.6004 17.3131 3.6004 16.1991C3.6004 15.8808 3.72685 15.5755 3.95192 15.3504C4.17699 15.1254 4.48225 14.9989 4.80054 14.9989C5.11884 14.9989 5.4241 15.1254 5.64917 15.3504C5.87424 15.5755 6.00069 15.8808 6.00069 16.1991C6.00069 16.6765 6.19035 17.1344 6.52796 17.472C6.86556 17.8096 7.32345 17.9993 7.8009 17.9993C8.1192 17.9993 8.42446 18.1257 8.64953 18.3508C8.8746 18.5759 9.00104 18.8811 9.00104 19.1994C9.00104 19.5177 8.8746 19.823 8.64953 20.0481C8.42446 20.2731 8.1192 20.3996 7.8009 20.3996Z" fill="white"/>
</svg>
